<?xml version="1.0" encoding="iso-8859-1"?>
<!-- Generator: Adobe Illustrator 19.0.0, SVG Export Plug-In . SVG Version: 6.00 Build 0)  -->
<svg version="1.1" id="Capa_1" xmlns="http://www.w3.org/2000/svg" xmlns:xlink="http://www.w3.org/1999/xlink" x="0px" y="0px"
	 viewBox="0 0 490.688 490.688" style="enable-background:new 0 0 490.688 490.688;" xml:space="preserve">
<path style="fill:#FFC107;" d="M462.784,209.077c-7.552-5.568-17.067-12.523-18.219-17.067c0.484-8.796,2.996-17.36,7.339-25.024
	c6.656-15.275,13.525-31.104,5.888-44.267c-7.637-13.163-25.003-15.296-41.707-17.067c-8.658-0.058-17.188-2.094-24.939-5.952
	c-3.864-7.778-5.893-16.339-5.931-25.024c-1.877-16.704-3.819-33.984-17.067-41.707c-13.248-7.723-29.099-0.96-44.373,5.781
	c-7.672,4.341-16.243,6.852-25.045,7.339c-4.608-1.237-11.541-10.667-17.067-18.219c-9.685-13.056-20.587-27.861-36.331-27.861
	s-26.645,14.805-36.267,27.861c-5.589,7.573-12.523,17.067-17.067,18.24c-8.794-0.53-17.356-3.038-25.045-7.339
	c-15.36-6.763-31.189-13.504-44.309-5.909s-15.317,25.003-17.195,41.813c-0.061,8.655-2.089,17.183-5.931,24.939
	c-7.736,3.803-16.233,5.801-24.853,5.845c-16.725,1.877-34.027,3.819-41.728,17.067S32,151.605,38.741,166.901
	c4.357,7.689,6.869,16.284,7.339,25.109c-1.237,4.608-10.667,11.563-18.219,17.067C14.805,218.677,0,229.6,0,245.344
	c0,15.744,14.805,26.667,27.883,36.267c7.552,5.568,17.067,12.523,18.219,17.067c-0.484,8.796-2.996,17.36-7.339,25.024
	c-6.656,15.275-13.525,31.104-5.888,44.267c7.637,13.163,25.003,15.296,41.707,17.067c8.658,0.058,17.188,2.094,24.939,5.952
	c3.864,7.778,5.893,16.339,5.931,25.024c1.877,16.704,3.819,33.984,17.067,41.707c13.248,7.723,28.971,0.768,44.267-5.888
	c7.749-4.293,16.37-6.772,25.216-7.253c4.608,1.237,11.541,10.667,17.067,18.219c9.621,13.056,20.523,27.861,36.267,27.861
	s26.645-14.805,36.267-27.861c5.589-7.573,12.523-17.067,17.067-18.24c8.8,0.498,17.368,3.008,25.045,7.339
	c15.275,6.656,31.104,13.483,44.245,5.909c13.141-7.573,15.317-25.003,17.195-41.728c0.061-8.655,2.089-17.183,5.931-24.939
	c7.75-3.834,16.271-5.855,24.917-5.909c16.725-1.877,34.027-3.819,41.728-17.067s0.747-28.971-5.888-44.267
	c-4.343-7.728-6.826-16.362-7.253-25.216c1.237-4.608,10.667-11.563,18.219-17.067c13.056-9.621,27.883-20.544,27.883-36.267
	S475.861,218.677,462.784,209.077z"/>
<g>
	<path style="fill:#FAFAFA;" d="M181.333,298.677c-3.357,0-6.519-1.581-8.533-4.267L128,234.677v53.333
		c0,5.891-4.776,10.667-10.667,10.667s-10.667-4.776-10.667-10.667v-85.333c0-5.891,4.776-10.667,10.667-10.667
		c3.357,0,6.519,1.581,8.533,4.267l44.8,59.733v-53.333c0-5.891,4.776-10.667,10.667-10.667c5.891,0,10.667,4.776,10.667,10.667
		v85.333c-0.003,4.589-2.942,8.662-7.296,10.112C183.618,298.49,182.48,298.677,181.333,298.677z"/>
	<path style="fill:#FAFAFA;" d="M266.667,298.677H224c-5.891,0-10.667-4.776-10.667-10.667v-85.333
		c0-5.891,4.776-10.667,10.667-10.667h42.667c5.891,0,10.667,4.776,10.667,10.667c0,5.891-4.776,10.667-10.667,10.667h-32v64h32
		c5.891,0,10.667,4.776,10.667,10.667C277.333,293.902,272.558,298.677,266.667,298.677z"/>
	<path style="fill:#FAFAFA;" d="M266.667,256.011H224c-5.891,0-10.667-4.776-10.667-10.667c0-5.891,4.776-10.667,10.667-10.667
		h42.667c5.891,0,10.667,4.776,10.667,10.667C277.333,251.235,272.558,256.011,266.667,256.011z"/>
	<path style="fill:#FAFAFA;" d="M373.333,298.677c-4.597,0.006-8.681-2.934-10.133-7.296L352,257.739l-11.2,33.643
		c-1.363,4.603-5.751,7.633-10.539,7.275c-4.738-0.18-8.788-3.465-9.941-8.064l-21.333-85.333
		c-1.426-5.72,2.056-11.513,7.776-12.939c5.72-1.426,11.513,2.056,12.939,7.776l12.437,49.792l9.749-29.248
		c2.535-5.591,9.122-8.068,14.713-5.533c2.454,1.113,4.42,3.079,5.533,5.533l9.749,29.248l12.437-49.792
		c1.426-5.72,7.218-9.202,12.939-7.776c5.72,1.426,9.202,7.218,7.776,12.939l-21.333,85.333c-1.153,4.599-5.204,7.884-9.941,8.064
		L373.333,298.677z"/>
</g>
<path d="M245.333,490.677c-15.744,0-26.667-14.805-36.267-27.883c-5.568-7.552-12.523-17.067-17.067-18.219
	c-8.8,0.459-17.37,2.972-25.024,7.339c-15.296,6.656-31.125,13.547-44.288,5.888s-15.275-25.003-17.067-41.707
	c-0.062-8.664-2.098-17.2-5.952-24.96c-7.777-3.844-16.328-5.865-25.003-5.909c-16.725-1.877-34.005-3.819-41.728-17.195
	S32,339.061,38.741,323.787c4.356-7.691,6.875-16.284,7.36-25.109c-1.237-4.608-10.667-11.541-18.24-17.067
	C14.805,271.989,0,261.067,0,245.344s14.805-26.645,27.861-36.267c7.573-5.589,17.067-12.523,18.219-17.067
	c-0.481-8.803-2.993-17.375-7.339-25.045c-6.741-15.36-13.504-31.168-5.888-44.331s25.003-15.296,41.813-17.173
	c8.658-0.058,17.188-2.094,24.939-5.952c3.805-7.727,5.804-16.219,5.845-24.832c1.877-16.704,3.819-34.005,17.067-41.707
	c13.248-7.701,29.056-0.96,44.373,5.781c7.674,4.391,16.278,6.906,25.109,7.339c4.608-1.237,11.563-10.667,17.067-18.219
	c9.6-13.056,20.523-27.861,36.267-27.861S272,14.816,281.6,27.893c5.568,7.552,12.523,17.067,17.067,18.219
	c8.804-0.437,17.379-2.952,25.024-7.339c15.253-6.635,31.083-13.611,44.267-5.888s15.296,25.003,17.067,41.728
	c0.064,8.657,2.1,17.186,5.952,24.939c7.783,3.847,16.342,5.868,25.024,5.909c16.725,1.877,34.005,3.819,41.728,17.195
	s0.939,28.971-5.803,44.245c-4.356,7.691-6.875,16.284-7.36,25.109c1.237,4.608,10.667,11.541,18.24,17.067
	c13.056,9.621,27.861,20.544,27.861,36.267s-14.805,26.645-27.861,36.267c-7.573,5.589-17.067,12.523-18.219,17.067
	c0.481,8.803,2.993,17.375,7.339,25.045c6.656,15.296,13.525,31.104,5.888,44.267s-25.003,15.296-41.728,17.067
	c-8.658,0.058-17.188,2.094-24.939,5.952c-3.855,7.774-5.883,16.326-5.931,25.003c-1.877,16.725-3.819,34.027-17.067,41.728
	c-13.248,7.701-28.992,0.725-44.267-5.888c-7.715-4.374-16.356-6.859-25.216-7.253c-4.608,1.237-11.563,10.667-17.067,18.219
	C272,475.872,261.077,490.677,245.333,490.677z M190.016,423.029c2.505-0.012,5.001,0.304,7.424,0.939
	c12.134,5.407,22.198,14.588,28.693,26.176c5.632,7.637,14.144,19.2,19.2,19.2c5.056,0,13.461-11.541,19.2-19.2
	c6.514-11.609,16.61-20.8,28.779-26.197c13.585-1.469,27.283,1.478,39.061,8.405c8.533,3.669,21.184,9.237,25.067,6.997
	c3.883-2.24,5.611-16.363,6.656-25.6c-0.162-13.518,4.068-26.724,12.053-37.632c10.919-7.984,24.128-12.22,37.653-12.075
	c9.28-1.045,23.296-2.603,25.6-6.656s-3.328-16.619-6.997-25.088c-6.95-11.762-9.892-25.462-8.384-39.04
	c5.381-12.136,14.54-22.209,26.112-28.715c7.637-5.632,19.2-14.144,19.2-19.2c0-5.056-11.541-13.461-19.2-19.093
	c-11.616-6.525-20.807-16.637-26.197-28.821c-1.497-13.577,1.444-27.274,8.384-39.04c3.669-8.533,9.237-21.333,6.997-25.067
	c-2.24-3.733-16.363-5.632-25.6-6.656c-13.525,0.163-26.738-4.066-37.653-12.053c-7.991-10.915-12.227-24.127-12.075-37.653
	c-1.045-9.301-2.624-23.317-6.656-25.6c-4.032-2.283-16.619,3.328-25.067,6.997c-11.763,6.967-25.474,9.918-39.061,8.405
	c-12.132-5.422-22.189-14.618-28.672-26.219c-5.632-7.637-14.144-19.2-19.2-19.2c-5.056,0-13.461,11.541-19.2,19.2
	c-6.496,11.588-16.559,20.769-28.693,26.176c-13.587,1.509-27.297-1.441-39.061-8.405c-8.533-3.669-21.184-9.259-25.067-6.997
	c-3.883,2.261-5.611,16.363-6.656,25.6c0.156,13.527-4.081,26.74-12.075,37.653c-10.918,7.985-24.128,12.221-37.653,12.075
	c-9.28,1.045-23.296,2.603-25.6,6.656c-2.304,4.053,3.328,16.619,6.997,25.088c6.95,11.762,9.892,25.462,8.384,39.04
	c-5.397,12.146-14.58,22.219-26.176,28.715c-7.637,5.632-19.2,14.144-19.2,19.2c0,5.056,11.541,13.461,19.2,19.093
	c11.616,6.525,20.807,16.637,26.197,28.821c1.497,13.577-1.445,27.274-8.384,39.04c-3.669,8.533-9.237,21.333-6.997,25.067
	c2.24,3.733,16.363,5.632,25.6,6.677c13.525-0.163,26.738,4.066,37.653,12.053c7.994,10.922,12.23,24.141,12.075,37.675
	c1.024,9.28,2.603,23.296,6.635,25.6c4.032,2.304,16.619-3.328,25.088-6.997C168.226,427.22,178.967,424.045,190.016,423.029z"/>
<path d="M181.333,298.677c-3.357,0-6.519-1.581-8.533-4.267L128,234.677v53.333c0,5.891-4.776,10.667-10.667,10.667
	s-10.667-4.776-10.667-10.667v-85.333c0-5.891,4.776-10.667,10.667-10.667c3.357,0,6.519,1.581,8.533,4.267l44.8,59.733v-53.333
	c0-5.891,4.776-10.667,10.667-10.667c5.891,0,10.667,4.776,10.667,10.667v85.333c0.006,4.597-2.934,8.681-7.296,10.133
	C183.614,298.494,182.478,298.673,181.333,298.677z"/>
<path d="M266.667,298.677H224c-5.891,0-10.667-4.776-10.667-10.667v-85.333c0-5.891,4.776-10.667,10.667-10.667h42.667
	c5.891,0,10.667,4.776,10.667,10.667c0,5.891-4.776,10.667-10.667,10.667h-32v64h32c5.891,0,10.667,4.776,10.667,10.667
	C277.333,293.902,272.558,298.677,266.667,298.677z"/>
<path d="M266.667,256.011H224c-5.891,0-10.667-4.776-10.667-10.667c0-5.891,4.776-10.667,10.667-10.667h42.667
	c5.891,0,10.667,4.776,10.667,10.667C277.333,251.235,272.558,256.011,266.667,256.011z"/>
<path d="M373.333,298.677c-4.589-0.003-8.662-2.942-10.112-7.296L352,257.739l-11.221,33.643c-1.872,5.586-7.918,8.596-13.503,6.724
	c-3.447-1.155-6.069-3.987-6.955-7.514l-21.333-85.333c-1.558-5.681,1.785-11.55,7.466-13.108c5.681-1.558,11.55,1.785,13.108,7.466
	c0.044,0.159,0.083,0.318,0.12,0.479l12.459,49.792l9.749-29.248c2.519-5.585,9.089-8.07,14.674-5.55
	c2.465,1.112,4.438,3.086,5.55,5.55l9.749,29.248l12.459-49.792c1.293-5.747,7.001-9.358,12.748-8.065
	c5.747,1.293,9.358,7.001,8.065,12.748c-0.036,0.161-0.076,0.321-0.12,0.48l-21.333,85.333c-1.145,4.607-5.198,7.903-9.941,8.085
	L373.333,298.677z"/>
<g>
</g>
<g>
</g>
<g>
</g>
<g>
</g>
<g>
</g>
<g>
</g>
<g>
</g>
<g>
</g>
<g>
</g>
<g>
</g>
<g>
</g>
<g>
</g>
<g>
</g>
<g>
</g>
<g>
</g>
</svg>
